<svg width="30" height="30" viewBox="0 0 30 30" fill="none" xmlns="http://www.w3.org/2000/svg">
<path d="M15 27.5C18.4517 27.5 21.5768 26.1009 23.8388 23.8388C26.1009 21.5768 27.5 18.4517 27.5 15C27.5 11.5483 26.1009 8.42325 23.8388 6.16116C21.5768 3.89911 18.4517 2.5 15 2.5C11.5483 2.5 8.42325 3.89911 6.16116 6.16116C3.89911 8.42325 2.5 11.5483 2.5 15C2.5 18.4517 3.89911 21.5768 6.16116 23.8388C8.42325 26.1009 11.5483 27.5 15 27.5Z" fill="#55708D"/>
<path d="M11.5 18.5V13.5C11.5 11.567 13.067 10 15 10C16.933 10 18.5 11.567 18.5 13.5V18.5M10 18.5H20" stroke="white" stroke-linecap="round" stroke-linejoin="round"/>
<path d="M15 20C15.6903 20 16.25 19.4403 16.25 18.75V18.5H13.75V18.75C13.75 19.4403 14.3097 20 15 20Z" stroke="white" stroke-linecap="round" stroke-linejoin="round"/>
</svg>
