<svg width="30" height="30" viewBox="0 0 30 30" fill="none" xmlns="http://www.w3.org/2000/svg">
<path d="M15 27.5C18.4517 27.5 21.5768 26.1009 23.8388 23.8388C26.1009 21.5768 27.5 18.4517 27.5 15C27.5 11.5483 26.1009 8.42325 23.8388 6.16116C21.5768 3.89911 18.4517 2.5 15 2.5C11.5483 2.5 8.42325 3.89911 6.16116 6.16116C3.89911 8.42325 2.5 11.5483 2.5 15C2.5 18.4517 3.89911 21.5768 6.16116 23.8388C8.42325 26.1009 11.5483 27.5 15 27.5Z" fill="#B3464C"/>
<path d="M14.155 13.515V10.26H15.835V13.515L15.67 17.505H14.32L14.155 13.515ZM14.995 21.09C14.675 21.09 14.4 20.98 14.17 20.76C13.95 20.53 13.84 20.255 13.84 19.935C13.84 19.615 13.95 19.345 14.17 19.125C14.4 18.905 14.675 18.795 14.995 18.795C15.315 18.795 15.585 18.905 15.805 19.125C16.035 19.345 16.15 19.615 16.15 19.935C16.15 20.255 16.035 20.53 15.805 20.76C15.585 20.98 15.315 21.09 14.995 21.09Z" fill="white"/>
</svg>
