<svg width="20" height="20" viewBox="0 0 20 20" fill="none" xmlns="http://www.w3.org/2000/svg">
<path d="M3.77778 5.55556L4.60033 17.0712C4.63771 17.5946 5.07315 18 5.59779 18H14.4022C14.9269 18 15.3623 17.5946 15.3997 17.0712L16.2222 5.55556M3.77778 5.55556H6.44444M3.77778 5.55556H18H16.2222M3.77778 5.55556H2M16.2222 5.55556H13.5556M6.44444 5.55556V3C6.44444 2.44771 6.89216 2 7.44444 2H12.5556C13.1078 2 13.5556 2.44772 13.5556 3V5.55556M6.44444 5.55556H10H13.5556M8.22222 9.11111C8.22222 11.1939 8.22222 12.3616 8.22222 14.4444M11.7778 9.11111C11.7778 9.11111 11.7778 12.3616 11.7778 14.4444" stroke="white" stroke-linecap="round"/>
</svg>
