<svg width="24" height="26" viewBox="0 0 24 26" fill="none" xmlns="http://www.w3.org/2000/svg">
<circle cx="12" cy="13" r="11.5" stroke="#0C325C"/>
<path d="M13.248 8.51855C13.5306 8.51855 13.7676 8.61654 13.959 8.8125C14.1549 9.00846 14.2529 9.24544 14.2529 9.52344C14.2529 9.80143 14.1549 10.0384 13.959 10.2344C13.763 10.4303 13.526 10.5283 13.248 10.5283C12.9746 10.5283 12.7399 10.4303 12.5439 10.2344C12.348 10.0384 12.25 9.80143 12.25 9.52344C12.25 9.24544 12.3457 9.00846 12.5371 8.8125C12.7331 8.61654 12.9701 8.51855 13.248 8.51855ZM13.6719 11.6631L12.2705 16.5234C12.193 16.8014 12.1543 16.9837 12.1543 17.0703C12.1543 17.1204 12.1748 17.1683 12.2158 17.2139C12.2568 17.2549 12.3001 17.2754 12.3457 17.2754C12.4232 17.2754 12.5007 17.2412 12.5781 17.1729C12.7832 17.0042 13.0293 16.6989 13.3164 16.2568L13.5488 16.3936C12.8607 17.5921 12.1292 18.1914 11.3545 18.1914C11.0583 18.1914 10.8213 18.1094 10.6436 17.9453C10.4704 17.7767 10.3838 17.5648 10.3838 17.3096C10.3838 17.141 10.4225 16.9268 10.5 16.667L11.4502 13.3994C11.5413 13.085 11.5869 12.848 11.5869 12.6885C11.5869 12.5882 11.5436 12.4993 11.457 12.4219C11.3704 12.3444 11.252 12.3057 11.1016 12.3057C11.0332 12.3057 10.9512 12.3079 10.8555 12.3125L10.9443 12.0391L13.2617 11.6631H13.6719Z" fill="#0C325C"/>
</svg>
