<svg width="141" height="70" viewBox="0 0 141 70" fill="none" xmlns="http://www.w3.org/2000/svg">
<path d="M83.6604 64.3395L83.7683 65.0816L83.6604 64.3395ZM75 40.5L74.2832 40.7206L75 40.5ZM61.9245 67.6669L62.1621 68.3783L61.9245 67.6669ZM0.5 47.5L3.22741 55.7196L8.98206 49.2478L0.5 47.5ZM4.83197 52.1807C5.95808 53.0818 7.08134 53.9401 8.20049 54.7573L9.08509 53.5459C7.98384 52.7417 6.8781 51.8969 5.76912 51.0095L4.83197 52.1807ZM11.682 57.179C12.8839 57.9741 14.0794 58.7232 15.2669 59.4285L16.0329 58.1389C14.8663 57.4459 13.6913 56.7097 12.5095 55.928L11.682 57.179ZM18.974 61.5058C20.2531 62.1801 21.5206 62.8049 22.7743 63.3832L23.4026 62.0211C22.1729 61.4539 20.9292 60.8408 19.6735 60.1789L18.974 61.5058ZM26.6772 65.0551C28.0294 65.5904 29.362 66.0726 30.6721 66.5058L31.143 65.0817C29.8601 64.6574 28.5545 64.185 27.2293 63.6604L26.6772 65.0551ZM34.7435 67.719C36.1569 68.0942 37.5382 68.4131 38.8833 68.6814L39.1768 67.2104C37.8621 66.9481 36.5112 66.6363 35.1283 66.2692L34.7435 67.719ZM43.0795 69.3774C44.5477 69.5712 45.9612 69.7051 47.3136 69.7881L47.4055 68.2909C46.0877 68.21 44.709 68.0795 43.2758 67.8903L43.0795 69.3774ZM51.5739 69.8891C53.1069 69.8657 54.5313 69.7767 55.8342 69.6404L55.6782 68.1486C54.4203 68.2801 53.0403 68.3666 51.551 68.3893L51.5739 69.8891ZM60.0753 68.955C60.856 68.7764 61.5541 68.5814 62.1621 68.3783L61.6869 66.9556C61.1311 67.1412 60.4806 67.3236 59.7408 67.4928L60.0753 68.955ZM62.1621 68.3783C62.831 68.1549 63.5045 67.8825 64.1755 67.5639L63.532 66.2089C62.913 66.5029 62.2956 66.7523 61.6869 66.9556L62.1621 68.3783ZM67.8592 65.3138C68.9724 64.4712 70.0425 63.4988 71.032 62.4076L69.9207 61.4C68.9946 62.4214 67.9936 63.3308 66.9539 64.1178L67.8592 65.3138ZM73.6138 58.9642C74.3495 57.7623 74.9874 56.4679 75.4975 55.0893L74.0908 54.5687C73.6158 55.8522 73.0213 57.0589 72.3345 58.1811L73.6138 58.9642ZM76.5835 50.9172C76.7982 49.5404 76.8862 48.104 76.8266 46.6145L75.3278 46.6745C75.3835 48.0661 75.3012 49.405 75.1014 50.6861L76.5835 50.9172ZM76.2668 42.3571C76.1152 41.6727 75.9324 40.98 75.7168 40.2794L74.2832 40.7206C74.4871 41.3833 74.6595 42.0371 74.8023 42.6815L76.2668 42.3571ZM75.7168 40.2794C75.4797 39.5088 75.1021 38.7856 74.6156 38.1193L73.4042 39.0039C73.804 39.5514 74.1004 40.1266 74.2832 40.7206L75.7168 40.2794ZM71.0691 35.0926C69.7893 34.3758 68.3334 33.8231 66.7916 33.4692L66.456 34.9312C67.8695 35.2556 69.19 35.7594 70.3361 36.4013L71.0691 35.0926ZM62.2559 33.027C60.7431 33.0759 59.217 33.3247 57.7487 33.8077L58.2174 35.2326C59.5385 34.798 60.922 34.5709 62.3044 34.5262L62.2559 33.027ZM53.6674 35.9346C53.0629 36.3934 52.488 36.9107 51.9504 37.4897L53.0496 38.5103C53.5273 37.9958 54.0377 37.5366 54.5741 37.1295L53.6674 35.9346ZM51.9504 37.4897C51.4936 37.9816 51.0714 38.5359 50.6892 39.1398L51.9567 39.9419C52.2941 39.4088 52.661 38.9289 53.0496 38.5103L51.9504 37.4897ZM49.0282 42.8639C48.6574 44.1206 48.4222 45.4698 48.353 46.8622L49.8511 46.9367C49.9144 45.6636 50.1295 44.4319 50.4669 43.2884L49.0282 42.8639ZM48.6317 50.9078C48.881 52.2093 49.2922 53.5099 49.8893 54.7712L51.2451 54.1294C50.7048 52.9881 50.3316 51.8091 50.105 50.6257L48.6317 50.9078ZM52.0847 58.1902C52.9166 59.1815 53.8999 60.1137 55.0476 60.9635L55.9402 59.758C54.8855 58.977 53.9886 58.1255 53.2337 57.226L52.0847 58.1902ZM58.5006 63.0151C59.6378 63.5527 60.882 64.0264 62.239 64.4258L62.6625 62.9868C61.3754 62.608 60.2045 62.1614 59.1417 61.659L58.5006 63.0151ZM66.1247 65.3066C67.3527 65.5105 68.6542 65.6628 70.0321 65.7587L70.1361 64.2623C68.8027 64.1696 67.5487 64.0225 66.3703 63.8269L66.1247 65.3066ZM73.9911 65.876C75.24 65.8667 76.5427 65.8161 77.901 65.7215L77.7968 64.2251C76.4677 64.3177 75.1961 64.367 73.98 64.3761L73.9911 65.876ZM81.7979 65.3454C82.4435 65.2667 83.1002 65.1788 83.7683 65.0816L83.5524 63.5973C82.8955 63.6928 82.2502 63.7791 81.6164 63.8564L81.7979 65.3454ZM83.7683 65.0816C84.4546 64.9818 85.1382 64.8639 85.8188 64.7286L85.5263 63.2574C84.8707 63.3877 84.2126 63.5012 83.5524 63.5973L83.7683 65.0816ZM89.8503 63.7173C91.1684 63.3183 92.4732 62.8566 93.7628 62.3372L93.2025 60.9458C91.9523 61.4493 90.6895 61.896 89.4157 62.2816L89.8503 63.7173ZM97.5432 60.6319C98.7691 60.0195 99.9793 59.357 101.172 58.649L100.407 57.3591C99.2434 58.0494 98.065 58.6945 96.8728 59.2901L97.5432 60.6319ZM104.655 56.4221C105.785 55.6474 106.897 54.8335 107.99 53.9847L107.07 52.8C105.999 53.6314 104.911 54.4277 103.807 55.185L104.655 56.4221ZM111.176 51.3669C112.211 50.4689 113.227 49.5411 114.221 48.5874L113.183 47.5049C112.206 48.4418 111.209 49.3527 110.193 50.2337L111.176 51.3669ZM117.127 45.6661C118.073 44.6705 118.996 43.6531 119.896 42.6178L118.764 41.6337C117.878 42.6528 116.97 43.6538 116.04 44.6331L117.127 45.6661ZM122.531 39.4544C123.39 38.3781 124.223 37.2875 125.03 36.1864L123.82 35.2996C123.025 36.3844 122.204 37.4588 121.358 38.5188L122.531 39.4544ZM127.397 32.8161C128.169 31.6681 128.912 30.5132 129.624 29.3556L128.346 28.5699C127.645 29.7101 126.913 30.8479 126.153 31.979L127.397 32.8161ZM131.706 25.8061C132.386 24.5889 133.031 23.3733 133.638 22.1644L132.297 21.4914C131.7 22.6802 131.066 23.8762 130.397 25.0745L131.706 25.8061ZM135.396 18.4448C135.968 17.1555 136.494 15.8795 136.971 14.6233L135.569 14.0904C135.102 15.3202 134.586 16.5711 134.025 17.8368L135.396 18.4448ZM138.319 10.7182C138.741 9.35114 139.098 8.01667 139.387 6.72401L137.923 6.39688C137.644 7.64738 137.297 8.94331 136.886 10.2758L138.319 10.7182ZM140.088 2.61697C140.168 1.90294 140.222 1.20665 140.249 0.530217L138.751 0.469783C138.725 1.10773 138.674 1.7682 138.597 2.44939L140.088 2.61697Z" fill="#83A2C3"/>
</svg>
