<svg width="15" height="15" viewBox="0 0 15 15" fill="none" xmlns="http://www.w3.org/2000/svg">
<path d="M13.9831 0.979325C14.156 1.16311 14.2532 1.41234 14.2532 1.67221C14.2532 1.93208 14.156 2.18132 13.9831 2.3651L9.09908 7.55245L13.9831 12.7398C14.1511 12.9246 14.2441 13.1722 14.242 13.4292C14.2399 13.6861 14.1429 13.9319 13.9718 14.1136C13.8007 14.2953 13.5693 14.3984 13.3274 14.4007C13.0854 14.4029 12.8524 14.3041 12.6783 14.1256L7.14199 8.24534C6.969 8.06156 6.87183 7.81232 6.87183 7.55245C6.87183 7.29258 6.969 7.04335 7.14199 6.85956L12.6783 0.979325C12.8514 0.795596 13.086 0.692383 13.3307 0.692383C13.5754 0.692383 13.81 0.795596 13.9831 0.979325Z" fill="white"/>
<path d="M7.65616 0.979325C7.82914 1.16311 7.92632 1.41234 7.92632 1.67221C7.92632 1.93208 7.82914 2.18132 7.65616 2.3651L2.77218 7.55245L7.65616 12.7398C7.82424 12.9246 7.91724 13.1722 7.91514 13.4292C7.91304 13.6861 7.816 13.9319 7.64492 14.1136C7.47384 14.2953 7.24241 14.3984 7.00047 14.4007C6.75854 14.4029 6.52545 14.3041 6.35143 14.1256L0.815083 8.24534C0.642099 8.06156 0.544922 7.81232 0.544922 7.55245C0.544922 7.29258 0.642099 7.04335 0.815083 6.85956L6.35143 0.979325C6.52446 0.795596 6.75912 0.692383 7.00379 0.692383C7.24847 0.692383 7.48312 0.795596 7.65616 0.979325Z" fill="white"/>
</svg>
