<svg width="14" height="14" viewBox="0 0 14 14" fill="none" xmlns="http://www.w3.org/2000/svg">
<path d="M4.08317 5.24999C5.21075 5.24999 6.12484 4.33591 6.12484 3.20832C6.12484 2.08074 5.21075 1.16666 4.08317 1.16666C2.95559 1.16666 2.0415 2.08074 2.0415 3.20832C2.0415 4.33591 2.95559 5.24999 4.08317 5.24999Z" stroke="white" stroke-linejoin="round"/>
<path d="M9.91667 5.24999C11.0443 5.24999 11.9583 4.33591 11.9583 3.20832C11.9583 2.08074 11.0443 1.16666 9.91667 1.16666C8.78908 1.16666 7.875 2.08074 7.875 3.20832C7.875 4.33591 8.78908 5.24999 9.91667 5.24999Z" stroke="white" stroke-linejoin="round"/>
<path d="M1.1665 12.8333C1.1665 12.5741 1.1665 11.6991 1.1665 10.2083C1.1665 8.59751 2.26615 7.29166 3.62266 7.29166C4.27762 7.29166 4.76885 7.29166 5.09633 7.29166C6.28779 7.29166 6.99987 8.46617 6.99987 8.46617" stroke="white" stroke-linecap="round" stroke-linejoin="round"/>
<path d="M12.8333 12.8333C12.8333 12.5741 12.8333 11.6991 12.8333 10.2083C12.8333 8.59751 11.7206 7.29166 10.348 7.29166C9.68521 7.29166 9.18815 7.29166 8.85676 7.29166C7.70141 7.29166 6.99773 8.46617 7.00001 8.46617" stroke="white" stroke-linecap="round" stroke-linejoin="round"/>
<path d="M3.2085 11.6667H11.0835" stroke="white" stroke-linecap="round" stroke-linejoin="round"/>
<path d="M10.0029 10.5753L10.3645 10.9391L11.0876 11.6666L10.3645 12.4137L10.0029 12.7873" stroke="white" stroke-linecap="round" stroke-linejoin="round"/>
<path d="M4.17944 10.5677L3.81217 10.9333L3.07764 11.6646L3.81217 12.4079L4.17944 12.7796" stroke="white" stroke-linecap="round" stroke-linejoin="round"/>
</svg>
