<svg width="14" height="15" viewBox="0 0 14 15" fill="none" xmlns="http://www.w3.org/2000/svg">
<path d="M0.270112 14.1137C0.097128 13.9299 -4.90513e-05 13.6807 -4.90286e-05 13.4208C-4.90058e-05 13.1609 0.097128 12.9117 0.270112 12.7279L5.15409 7.54056L0.270113 2.35321C0.102031 2.16838 0.00902619 1.92082 0.0111286 1.66385C0.013231 1.40689 0.110273 1.16108 0.281353 0.979375C0.452434 0.797668 0.683864 0.694598 0.9258 0.692364C1.16773 0.690132 1.40082 0.788914 1.57484 0.967436L7.11119 6.84768C7.28417 7.03146 7.38135 7.28069 7.38135 7.54057C7.38135 7.80044 7.28417 8.04967 7.11119 8.23345L1.57484 14.1137C1.40181 14.2974 1.16715 14.4006 0.922478 14.4006C0.677804 14.4006 0.443148 14.2974 0.270112 14.1137Z" fill="white"/>
<path d="M6.59702 14.1137C6.42403 13.9299 6.32686 13.6807 6.32686 13.4208C6.32686 13.1609 6.42403 12.9117 6.59702 12.7279L11.481 7.54056L6.59702 2.35321C6.42894 2.16838 6.33593 1.92082 6.33803 1.66385C6.34014 1.40689 6.43718 1.16108 6.60826 0.979375C6.77934 0.797668 7.01077 0.694598 7.2527 0.692364C7.49464 0.690132 7.72772 0.788914 7.90175 0.967436L13.4381 6.84768C13.6111 7.03146 13.7083 7.28069 13.7083 7.54057C13.7083 7.80044 13.6111 8.04967 13.4381 8.23345L7.90175 14.1137C7.72871 14.2974 7.49406 14.4006 7.24938 14.4006C7.00471 14.4006 6.77005 14.2974 6.59702 14.1137Z" fill="white"/>
</svg>
