<svg width="25" height="25" viewBox="0 0 25 25" fill="none" xmlns="http://www.w3.org/2000/svg">
<path d="M9.375 3.125H4.16667C3.59137 3.125 3.125 3.59137 3.125 4.16667V9.375C3.125 9.95031 3.59137 10.4167 4.16667 10.4167H9.375C9.95031 10.4167 10.4167 9.95031 10.4167 9.375V4.16667C10.4167 3.59137 9.95031 3.125 9.375 3.125Z" stroke="white" stroke-linejoin="round"/>
<path d="M9.375 14.5835H4.16667C3.59137 14.5835 3.125 15.0499 3.125 15.6252V20.8335C3.125 21.4088 3.59137 21.8752 4.16667 21.8752H9.375C9.95031 21.8752 10.4167 21.4088 10.4167 20.8335V15.6252C10.4167 15.0499 9.95031 14.5835 9.375 14.5835Z" stroke="white" stroke-linejoin="round"/>
<path d="M20.8335 3.125H15.6252C15.0499 3.125 14.5835 3.59137 14.5835 4.16667V9.375C14.5835 9.95031 15.0499 10.4167 15.6252 10.4167H20.8335C21.4088 10.4167 21.8752 9.95031 21.8752 9.375V4.16667C21.8752 3.59137 21.4088 3.125 20.8335 3.125Z" stroke="white" stroke-linejoin="round"/>
<path d="M20.8335 14.5835H15.6252C15.0499 14.5835 14.5835 15.0499 14.5835 15.6252V20.8335C14.5835 21.4088 15.0499 21.8752 15.6252 21.8752H20.8335C21.4088 21.8752 21.8752 21.4088 21.8752 20.8335V15.6252C21.8752 15.0499 21.4088 14.5835 20.8335 14.5835Z" stroke="white" stroke-linejoin="round"/>
</svg>
