<svg width="25" height="25" viewBox="0 0 25 25" fill="none" xmlns="http://www.w3.org/2000/svg">
<path d="M6.25 14.0625C7.11294 14.0625 7.8125 13.3629 7.8125 12.5C7.8125 11.6371 7.11294 10.9375 6.25 10.9375C5.38706 10.9375 4.6875 11.6371 4.6875 12.5C4.6875 13.3629 5.38706 14.0625 6.25 14.0625Z" fill="#0C325C"/>
<path d="M12.5 14.0625C13.3629 14.0625 14.0625 13.3629 14.0625 12.5C14.0625 11.6371 13.3629 10.9375 12.5 10.9375C11.6371 10.9375 10.9375 11.6371 10.9375 12.5C10.9375 13.3629 11.6371 14.0625 12.5 14.0625Z" fill="#0C325C"/>
<path d="M18.75 14.0625C19.6129 14.0625 20.3125 13.3629 20.3125 12.5C20.3125 11.6371 19.6129 10.9375 18.75 10.9375C17.8871 10.9375 17.1875 11.6371 17.1875 12.5C17.1875 13.3629 17.8871 14.0625 18.75 14.0625Z" fill="#0C325C"/>
</svg>
